<?xml version="1.0" encoding="UTF-8" standalone="no"?>
<svg width="396px" height="412px" viewBox="0 0 396 412" version="1.1" xmlns="http://www.w3.org/2000/svg" xmlns:xlink="http://www.w3.org/1999/xlink">
    <!-- Generator: Sketch 46.2 (44496) - http://www.bohemiancoding.com/sketch -->
    <title>Tag Icon Copy 2</title>
    <desc>Created with Sketch.</desc>
    <defs></defs>
    <g id="Symbols" stroke="none" stroke-width="1" fill="none" fill-rule="evenodd" fill-opacity="0.800000012" opacity="0.0299999993">
        <g id="Icons/Large---Low-Rates" transform="translate(-10.000000, -48.000000)" fill-rule="nonzero" fill="#FFFFFF">
            <g id="Tag-Icon-Copy-2" transform="translate(208.962053, 244.507450) rotate(19.000000) translate(-208.962053, -244.507450) translate(59.962053, 37.507450)">
                <path d="M156.162683,278.264482 C150.263149,284.163199 150.263149,293.86109 156.162683,299.759807 C162.062218,305.658524 171.761453,305.658524 177.660988,299.759807 C183.560523,293.86109 183.560523,284.163199 177.660988,278.264482 C171.761453,272.265786 162.062218,272.265786 156.162683,278.264482 Z" id="Shape"></path>
                <path d="M92.6876897,235.614692 C86.788155,229.701398 77.08892,229.701398 71.1893853,235.614692 C65.2898506,241.527986 65.2898506,251.249842 71.1893853,257.163136 C77.08892,263.07643 86.788155,263.07643 92.6876897,257.163136 C98.5872244,251.249842 98.5872244,241.628211 92.6876897,235.614692 Z" id="Shape"></path>
                <path d="M294.824078,26.2257482 C290.784214,16.5814408 278.40676,0.338396751 240.758671,0 C240.328898,0 239.98508,0 239.555307,0 C216.433536,0 188.928082,6.00654234 161.852402,17.0044368 C156.867038,19.0348173 152.053584,21.149797 147.412039,23.433975 L147.154175,23.1801775 C131.682358,8.3753196 107.013404,8.3753196 91.5415868,23.1801775 L15.7296811,95.6816815 C5.67299974,105.24139 0,118.438863 0,132.228531 L0,377.819973 C0,397.616183 16.3313629,413.690029 36.4447256,413.690029 L202.336991,413.690029 C222.450354,413.690029 238.781716,397.616183 238.781716,377.819973 L238.781716,132.228531 C238.781716,125.206798 237.320489,118.269665 234.483989,112.009325 C250.557489,103.12641 264.568079,92.9745075 275.312397,82.3150098 C301.614486,56.0046624 298.863941,35.8700557 294.824078,26.2257482 Z M45.555907,241.69988 C45.555907,224.610844 59.7384064,210.651978 77.1012238,210.651978 C94.4640412,210.651978 108.646541,224.610844 108.646541,241.69988 C108.646541,258.788916 94.4640412,272.747782 77.1012238,272.747782 C59.7384064,272.747782 45.6418616,258.873515 45.555907,241.69988 Z M72.373724,322.9151 C69.1074514,320.207926 68.6776787,315.470372 71.3422695,312.255602 L154.202448,214.035945 C156.952993,210.821176 161.766447,210.39818 165.03272,213.020755 C168.298992,215.727929 168.728765,220.465484 166.064174,223.680253 L83.2039962,321.89991 C80.4534509,325.114679 75.6399966,325.537675 72.373724,322.9151 Z M160.391175,325.114679 C143.028357,325.114679 128.845858,311.155813 128.845858,294.066777 C128.845858,276.977741 143.028357,263.018875 160.391175,263.018875 C177.753992,263.018875 191.936491,276.977741 191.936491,294.066777 C191.936491,311.155813 177.753992,325.114679 160.391175,325.114679 Z M195.374673,97.0352685 C179.559037,103.464807 163.313629,108.033163 148.529448,110.232742 C148.529448,110.909535 148.615402,111.50173 148.615402,112.178523 C148.615402,128.590766 135.120539,141.872838 118.445358,141.872838 C101.770177,141.872838 88.2753142,128.590766 88.2753142,112.178523 C88.2753142,95.7662807 101.770177,82.4842082 118.445358,82.4842082 C128.416085,82.4842082 137.183448,87.2217627 142.684539,94.4972928 C156.695129,92.1285156 171.823129,87.813957 186.693264,81.8074147 C191.936491,79.692435 196.8359,77.4928561 201.477445,75.208678 L171.049538,46.0219582 C171.909083,45.6835614 172.768629,45.3451647 173.628174,44.9221688 C196.749946,35.5316589 220.731263,30.2019101 239.641262,30.2019101 C239.899126,30.2019101 240.242944,30.2019101 240.500807,30.2019101 C258.637216,30.3711084 265.427624,35.1932621 266.459079,37.7312378 C269.639397,45.5143631 249.44008,75.1240788 195.374673,97.0352685 Z" id="Shape"></path>
            </g>
        </g>
    </g>
</svg>