<?xml version="1.0" encoding="utf-8"?>
<!DOCTYPE svg PUBLIC "-//W3C//DTD SVG 1.1//EN" "http://www.w3.org/Graphics/SVG/1.1/DTD/svg11.dtd">
<svg version="1.1" id="Capa_1" xmlns="http://www.w3.org/2000/svg" xmlns:xlink="http://www.w3.org/1999/xlink" x="0px" y="0px"
	 viewBox="-8 -1 14 10" enable-background="new -8 -1 14 10" xml:space="preserve">
<path fill="#666666" d="M1.8,0.6C1.7,0.5,1.5,0.4,1.3,0.4H0.6v-0.5c0-0.2-0.1-0.4-0.3-0.6C0.2-0.9,0-1-0.3-1h-0.3
	C-0.8-1-1-0.9-1.2-0.7s-0.3,0.4-0.3,0.6v0.5h-2.1v-0.5c0-0.2-0.1-0.4-0.3-0.6C-4-0.9-4.2-1-4.4-1h-0.3C-5-1-5.2-0.9-5.4-0.7
	c-0.2,0.2-0.3,0.4-0.3,0.6v0.5h-0.7c-0.2,0-0.4,0.1-0.5,0.2C-6.9,0.7-7,0.9-7,1.1v7c0,0.2,0.1,0.4,0.2,0.5c0.1,0.1,0.3,0.2,0.5,0.2
	h7.6c0.2,0,0.4-0.1,0.5-0.2C1.9,8.4,2,8.3,2,8.1v-7C2,0.9,1.9,0.7,1.8,0.6z M-4.8,8.1h-1.6V6.5h1.6V8.1z M-4.8,6.2h-1.6V4.4h1.6V6.2
	z M-4.8,4.1h-1.6V2.5h1.6V4.1z M-4.9,1.6c0,0,0-0.1,0-0.1v-1.6c0,0,0-0.1,0-0.1c0,0,0.1,0,0.1,0h0.3c0,0,0.1,0,0.1,0
	c0,0,0,0.1,0,0.1v1.6c0,0,0,0.1,0,0.1c0,0-0.1,0-0.1,0h-0.3C-4.8,1.6-4.8,1.6-4.9,1.6z M-2.7,8.1h-1.7V6.5h1.7V8.1z M-2.7,6.2h-1.7
	V4.4h1.7V6.2z M-2.7,4.1h-1.7V2.5h1.7V4.1z M-0.6,8.1h-1.7V6.5h1.7V8.1z M-0.6,6.2h-1.7V4.4h1.7V6.2z M-0.6,4.1h-1.7V2.5h1.7V4.1z
	 M-0.7,1.6c0,0,0-0.1,0-0.1v-1.6c0,0,0-0.1,0-0.1c0,0,0.1,0,0.1,0h0.3c0,0,0.1,0,0.1,0c0,0,0,0.1,0,0.1v1.6c0,0,0,0.1,0,0.1
	c0,0-0.1,0-0.1,0h-0.3C-0.6,1.6-0.7,1.6-0.7,1.6z M1.3,8.1h-1.6V6.5h1.6V8.1z M1.3,6.2h-1.6V4.4h1.6V6.2z M1.3,4.1h-1.6V2.5h1.6V4.1
	z"/>
</svg>
