<?xml version="1.0" encoding="utf-8"?>
<!-- Generator: Adobe Illustrator 18.0.0, SVG Export Plug-In . SVG Version: 6.00 Build 0)  -->
<!DOCTYPE svg PUBLIC "-//W3C//DTD SVG 1.1//EN" "http://www.w3.org/Graphics/SVG/1.1/DTD/svg11.dtd">
<svg version="1.1" id="Capa_1" xmlns="http://www.w3.org/2000/svg" xmlns:xlink="http://www.w3.org/1999/xlink" x="0px" y="0px"
	 viewBox="58 23 100 100" enable-background="new 58 23 100 100" xml:space="preserve">
<path fill="#666666" d="M151.9,39.4c-1.4-1.4-3.1-2.1-5-2.1h-7.1v-5.4c0-2.5-0.9-4.6-2.6-6.3c-1.7-1.7-3.8-2.6-6.2-2.6h-3.5c-2.4,0-4.5,0.9-6.2,2.6
	c-1.7,1.7-2.6,3.9-2.6,6.3v5.4H97.4v-5.4c0-2.5-0.9-4.6-2.6-6.3C93.1,23.9,91,23,88.5,23H85c-2.4,0-4.5,0.9-6.2,2.6
	c-1.7,1.7-2.6,3.9-2.6,6.3v5.4h-7.1c-1.9,0-3.6,0.7-5,2.1c-1.4,1.4-2.1,3.1-2.1,5v71.4c0,1.9,0.7,3.6,2.1,5c1.4,1.4,3.1,2.1,5,2.1
	h77.8c1.9,0,3.6-0.7,5-2.1c1.4-1.4,2.1-3.1,2.1-5V44.4C154,42.5,153.3,40.8,151.9,39.4z M85,115.9H69.1V99.8H85V115.9z M85,96.2
	H69.1V78.4H85V96.2z M85,74.8H69.1V58.7H85V74.8z M83.8,49.3c-0.4-0.4-0.5-0.8-0.5-1.3V31.9c0-0.5,0.2-0.9,0.5-1.3
	c0.4-0.4,0.8-0.5,1.2-0.5h3.5c0.5,0,0.9,0.2,1.2,0.5c0.4,0.4,0.5,0.8,0.5,1.3V48c0,0.5-0.2,0.9-0.5,1.3c-0.4,0.4-0.8,0.5-1.2,0.5H85
	C84.5,49.8,84.1,49.6,83.8,49.3z M106.2,115.9H88.5V99.8h17.7V115.9z M106.2,96.2H88.5V78.4h17.7V96.2z M106.2,74.8H88.5V58.7h17.7
	V74.8z M127.5,115.9h-17.7V99.8h17.7V115.9z M127.5,96.2h-17.7V78.4h17.7V96.2z M127.5,74.8h-17.7V58.7h17.7V74.8z M126.2,49.3
	c-0.3-0.4-0.5-0.8-0.5-1.3V31.9c0-0.5,0.2-0.9,0.5-1.3c0.4-0.4,0.8-0.5,1.2-0.5h3.5c0.5,0,0.9,0.2,1.2,0.5c0.4,0.4,0.5,0.8,0.5,1.3
	V48c0,0.5-0.2,0.9-0.5,1.3c-0.3,0.4-0.8,0.5-1.2,0.5h-3.5C127,49.8,126.6,49.6,126.2,49.3z M146.9,115.9H131V99.8h15.9V115.9z
	 M146.9,96.2H131V78.4h15.9V96.2z M146.9,74.8H131V58.7h15.9V74.8z"/>
</svg>
