<?xml version="1.0" encoding="utf-8"?>
<!DOCTYPE svg PUBLIC "-//W3C//DTD SVG 1.1//EN" "http://www.w3.org/Graphics/SVG/1.1/DTD/svg11.dtd">
<svg version="1.1" id="Capa_1" xmlns="http://www.w3.org/2000/svg" xmlns:xlink="http://www.w3.org/1999/xlink" x="0px" y="0px"
	 viewBox="35 0 146 146" enable-background="new 35 0 146 146" xml:space="preserve">
<g>
	<path d="M50.6,57.4c-4.3,0-8,1.5-11.1,4.6c-3,3-4.6,6.7-4.6,11.1c0,4.3,1.5,8,4.6,11.1s6.7,4.6,11.1,4.6s8-1.5,11.1-4.6
		c3-3,4.6-6.7,4.6-11.1c0-4.3-1.5-8-4.6-11.1C58.7,58.9,55,57.4,50.6,57.4z"/>
	<path d="M50.6,15.6c-4.3,0-8,1.5-11.1,4.6c-3,3-4.6,6.7-4.6,11.1c0,4.3,1.5,8,4.6,11.1c3,3,6.7,4.6,11.1,4.6s8-1.5,11.1-4.6
		c3-3,4.6-6.7,4.6-11.1c0-4.3-1.5-8-4.6-11.1C58.7,17.2,55,15.6,50.6,15.6z"/>
	<path d="M50.6,99.1c-4.3,0-8,1.5-11.1,4.6s-4.6,6.7-4.6,11.1c0,4.3,1.5,8,4.6,11.1c3,3,6.7,4.6,11.1,4.6s8-1.5,11.1-4.6
		c3-3,4.6-6.7,4.6-11.1c0-4.3-1.5-8-4.6-11.1S55,99.1,50.6,99.1z"/>
	<path d="M180.2,21.6c-0.5-0.5-1.1-0.8-1.8-0.8H79.3c-0.7,0-1.3,0.3-1.8,0.8c-0.5,0.5-0.8,1.1-0.8,1.8v15.6c0,0.7,0.3,1.3,0.8,1.8
		c0.5,0.5,1.1,0.8,1.8,0.8h99.1c0.7,0,1.3-0.3,1.8-0.8c0.5-0.5,0.8-1.1,0.8-1.8V23.5C181,22.8,180.7,22.1,180.2,21.6z"/>
	<path d="M178.4,62.6H79.3c-0.7,0-1.3,0.3-1.8,0.8c-0.5,0.5-0.8,1.1-0.8,1.8v15.6c0,0.7,0.3,1.3,0.8,1.8c0.5,0.5,1.1,0.8,1.8,0.8
		h99.1c0.7,0,1.3-0.3,1.8-0.8c0.5-0.5,0.8-1.1,0.8-1.8V65.2c0-0.7-0.3-1.3-0.8-1.8C179.7,62.8,179.1,62.6,178.4,62.6z"/>
	<path d="M178.4,104.3H79.3c-0.7,0-1.3,0.3-1.8,0.8s-0.8,1.1-0.8,1.8v15.6c0,0.7,0.3,1.3,0.8,1.8c0.5,0.5,1.1,0.8,1.8,0.8h99.1
		c0.7,0,1.3-0.3,1.8-0.8c0.5-0.5,0.8-1.1,0.8-1.8v-15.6c0-0.7-0.3-1.3-0.8-1.8C179.7,104.5,179.1,104.3,178.4,104.3z"/>
</g>
</svg>
