<?xml version="1.0" encoding="UTF-8"?>
<svg width="14px" height="19px" viewBox="0 0 14 19" version="1.1" xmlns="http://www.w3.org/2000/svg" xmlns:xlink="http://www.w3.org/1999/xlink">
    <!-- Generator: sketchtool 43.2 (39069) - http://www.bohemiancoding.com/sketch -->
    <title>63EB89BF-C97F-4195-8E37-03CE0CDA823E</title>
    <desc>Created with sketchtool.</desc>
    <defs></defs>
    <g id="4.5-Updated-Hotel-details-mobile" stroke="none" stroke-width="1" fill="none" fill-rule="evenodd">
        <g id="1.4-Homepage-with-hotel-dropdown-Copy" transform="translate(-820.000000, -1216.000000)" fill-rule="nonzero" fill="#606060">
            <g id="1493155529_icon-36-medal" transform="translate(820.000000, 1216.000000)">
                <path d="M10.4105354,0 L14,0 L11.1717717,7.99682052 C10.216249,7.19040547 9.0077008,6.65497604 7.67566208,6.5152096 L10.4105354,0 Z M0,0 L3.54015654,0 L6.27526964,6.51578094 C4.94343099,6.65663554 3.73528379,7.19306439 2.78040262,8.00035201 L0,0 Z M12.7054503,12.6038405 C12.7054503,9.55937074 10.141263,7.09134045 6.97817756,7.09134045 C3.81509218,7.09134045 1.25090484,9.55937074 1.25090484,12.6038405 C1.25090484,15.6483101 3.81509218,18.1163405 6.97817756,18.1163405 C10.141263,18.1163405 12.7054503,15.6483101 12.7054503,12.6038405 Z M4.75090484,15.6663405 L5.70545029,13.2163405 L3.79635939,11.9913405 L6.02363211,11.9913405 L6.97817756,9.54134045 L7.93272302,11.9913405 L10.1599957,11.9913405 L8.25090484,13.2163405 L9.20545029,15.6663405 L6.97817756,14.2528789 L4.75090484,15.6663405 Z" id="medal"></path>
            </g>
        </g>
    </g>
</svg>