<?xml version="1.0" encoding="utf-8"?>
<!DOCTYPE svg PUBLIC "-//W3C//DTD SVG 1.1//EN" "http://www.w3.org/Graphics/SVG/1.1/DTD/svg11.dtd">
<svg version="1.1" id="Capa_1" xmlns="http://www.w3.org/2000/svg" xmlns:xlink="http://www.w3.org/1999/xlink" x="0px" y="0px"
	 viewBox="35 0 146 146" enable-background="new 35 0 146 146" xml:space="preserve">
<g>
	<path d="M92.4,15.6H50.6c-2.8,0-5.3,1-7.3,3.1c-2.1,2.1-3.1,4.5-3.1,7.3v31.3c0,2.8,1,5.3,3.1,7.3c2.1,2.1,4.5,3.1,7.3,3.1h41.7
		c2.8,0,5.3-1,7.3-3.1c2.1-2.1,3.1-4.5,3.1-7.3V26.1c0-2.8-1-5.3-3.1-7.3C97.6,16.7,95.2,15.6,92.4,15.6z"/>
	<path d="M92.4,78.2H50.6c-2.8,0-5.3,1-7.3,3.1s-3.1,4.5-3.1,7.3v31.3c0,2.8,1,5.3,3.1,7.3c2.1,2.1,4.5,3.1,7.3,3.1h41.7
		c2.8,0,5.3-1,7.3-3.1c2.1-2.1,3.1-4.5,3.1-7.3V88.6c0-2.8-1-5.3-3.1-7.3C97.6,79.2,95.2,78.2,92.4,78.2z"/>
	<path d="M172.7,18.7c-2.1-2.1-4.5-3.1-7.3-3.1h-41.7c-2.8,0-5.3,1-7.3,3.1c-2.1,2.1-3.1,4.5-3.1,7.3v31.3c0,2.8,1,5.3,3.1,7.3
		c2.1,2.1,4.5,3.1,7.3,3.1h41.7c2.8,0,5.3-1,7.3-3.1c2.1-2.1,3.1-4.5,3.1-7.3V26.1C175.8,23.2,174.8,20.8,172.7,18.7z"/>
	<path d="M165.4,78.2h-41.7c-2.8,0-5.3,1-7.3,3.1c-2.1,2.1-3.1,4.5-3.1,7.3v31.3c0,2.8,1,5.3,3.1,7.3c2.1,2.1,4.5,3.1,7.3,3.1h41.7
		c2.8,0,5.3-1,7.3-3.1c2.1-2.1,3.1-4.5,3.1-7.3V88.6c0-2.8-1-5.3-3.1-7.3C170.6,79.2,168.2,78.2,165.4,78.2z"/>
</g>
</svg>
