<?xml version="1.0" encoding="UTF-8" standalone="no"?>
<svg width="347px" height="418px" viewBox="0 0 347 418" version="1.1" xmlns="http://www.w3.org/2000/svg" xmlns:xlink="http://www.w3.org/1999/xlink">
    <!-- Generator: Sketch 46.2 (44496) - http://www.bohemiancoding.com/sketch -->
    <title>005-medal copy</title>
    <desc>Created with Sketch.</desc>
    <defs></defs>
    <g id="Symbols" stroke="none" stroke-width="1" fill="none" fill-rule="evenodd" fill-opacity="0.799999952" opacity="0.0299999993">
        <g id="Icons/Large---Rewards" transform="translate(-46.000000, -44.000000)" fill-rule="nonzero" fill="#FFFFFF">
            <g id="005-medal-copy" transform="translate(217.318143, 248.889159) rotate(-340.000000) translate(-217.318143, -248.889159) translate(62.318143, 40.889159)">
                <path d="M308.515024,184.428151 L288.15378,157.11631 C286.875878,155.362339 286.790684,152.940188 288.068587,151.186216 L308.003863,123.623808 C309.792926,121.118135 308.940991,117.610192 306.214799,116.19031 L275.800724,100.237522 C273.841274,99.2352527 272.733759,97.063669 273.159726,94.8920853 L278.86769,61.566628 C279.378851,58.5598198 277.078627,55.7200565 273.926468,55.6365341 L239.508299,54.2166524 C237.293268,54.13313 235.333818,52.6297259 234.737464,50.5416646 L225.195793,17.9679093 C224.343858,15.0446236 221.021312,13.4576971 218.124734,14.7105338 L186.432756,28.0741257 C184.388113,28.9093502 182.002695,28.4082155 180.469212,26.821289 L157.466971,1.68103167 C155.337133,-0.574074465 151.759007,-0.574074465 149.62917,1.76455412 L126.967702,27.2389012 C125.519413,28.9093502 123.133995,29.4104849 121.089352,28.5752604 L89.2269873,15.7128032 C86.3304087,14.5434889 83.0930562,16.1304154 82.2411214,19.0537012 L73.1254182,51.6274565 C72.5290638,53.7155177 70.6548071,55.2189218 68.4397764,55.3859667 L34.0216076,57.3069831 C30.8694485,57.474028 28.6544179,60.3137912 29.1655788,63.3205994 L35.3847034,96.5625343 C35.8106708,98.734118 34.7031555,100.905702 32.8288987,101.907971 L2.67040425,118.278371 C-0.0557873472,119.781775 -0.822528733,123.289718 0.9665345,125.711869 L21.327778,153.02371 C22.6056803,154.777682 22.6908738,157.199833 21.4129714,158.953804 L1.47769542,186.516212 C-0.311367809,189.021886 0.540567064,192.529829 3.26675866,193.94971 L33.6808336,209.902498 C35.6402838,210.904768 36.7477992,213.076351 36.3218317,215.247935 L30.6138681,248.573392 C30.1027071,251.580201 32.4029313,254.419964 35.5550903,254.503486 L69.9732592,255.923368 C72.1882899,256.00689 74.1477401,257.510295 74.7440945,259.598356 L84.3709585,292.088589 C85.2228934,295.011874 88.5454394,296.598801 91.442018,295.345964 L123.133995,281.982372 C125.178639,281.147148 127.564057,281.648282 129.097539,283.235209 L152.099781,308.375466 C154.229618,310.630572 157.807745,310.630572 159.937582,308.291944 L182.599049,282.817597 C184.047339,281.147148 186.432756,280.646013 188.4774,281.481238 L220.339764,294.343695 C223.236343,295.513009 226.473695,293.926083 227.32563,291.002797 L236.441333,258.429042 C237.037688,256.34098 238.911944,254.837576 241.126975,254.670531 L275.545144,252.749515 C278.697303,252.58247 280.912334,249.742707 280.401173,246.735899 L274.182048,213.493964 C273.756081,211.32238 274.863596,209.150796 276.737853,208.148527 L306.896347,191.778127 C309.622539,190.441768 310.38928,186.933825 308.515024,184.428151 Z M154.825973,246.819421 C103.283913,246.819421 61.2835235,205.642853 61.2835235,155.111771 C61.2835235,104.580689 103.283913,63.4041219 154.825973,63.4041219 C206.368032,63.4041219 248.368422,104.580689 248.368422,155.111771 C248.368422,205.726376 206.368032,246.819421 154.825973,246.819421 Z" id="Shape"></path>
                <path d="M236.752432,310.056498 C231.830573,315.125288 224.956942,318.132198 217.574154,318.132198 C214.943505,318.132198 212.312857,317.702639 209.851927,317.015346 L187.958141,310.314233 L171.071073,325.950162 C170.477056,326.465633 169.967898,326.981103 169.373881,327.410661 L196.528964,412.635067 C197.46242,415.641976 201.281104,416.32927 203.232875,413.837831 L223.005171,388.150232 C223.938627,386.861557 225.635819,386.346087 227.078433,386.775645 L257.882481,395.882285 C260.852568,396.741402 263.568077,393.906316 262.634621,390.985319 L236.752432,310.056498 Z" id="Shape"></path>
                <path d="M115.746748,310.314023 L93.8529622,317.009673 C91.3071731,317.782248 88.7613841,318.125614 86.1307353,318.125614 C78.747947,318.125614 71.9591761,315.121156 66.9524575,310.056498 L41.0702685,391.005188 C40.1368125,394.009646 42.8523208,396.756579 45.8224081,395.898162 L76.6264561,386.798946 C78.1539295,386.369738 79.7662626,386.884788 80.6997186,388.172413 L100.472014,413.83907 C102.338926,416.328479 106.242469,415.641745 107.175925,412.637287 L134.331009,327.482356 C133.736991,327.053148 133.142974,326.538098 132.633816,326.023048 L115.746748,310.314023 Z" id="Shape"></path>
                <path d="M203.82863,130.75053 L170.755913,128.369212 L158.293729,97.888335 C155.977041,92.1731706 147.748805,92.1731706 145.432117,97.888335 L132.969933,128.369212 L99.8972158,130.75053 C93.6661241,131.226794 91.1896646,138.92639 95.9029263,142.895255 L121.226722,164.168367 L113.318029,196.157412 C111.800199,202.190085 118.430719,206.952722 123.703182,203.698254 L151.82298,186.314629 L179.942778,203.698254 C185.215241,206.952722 191.845761,202.190085 190.327931,196.157412 L182.419238,164.168367 L207.743034,142.895255 C212.536181,138.92639 210.059722,131.226794 203.82863,130.75053 Z" id="Shape"></path>
            </g>
        </g>
    </g>
</svg>