<?xml version="1.0" encoding="UTF-8" standalone="no"?>
<svg width="366px" height="246px" viewBox="0 0 366 246" version="1.1" xmlns="http://www.w3.org/2000/svg" xmlns:xlink="http://www.w3.org/1999/xlink">
    <!-- Generator: Sketch 46.2 (44496) - http://www.bohemiancoding.com/sketch -->
    <title>001-commerce copy</title>
    <desc>Created with Sketch.</desc>
    <defs></defs>
    <g id="Symbols" stroke="none" stroke-width="1" fill="none" fill-rule="evenodd" fill-opacity="0.700000048" opacity="0.0299999993">
        <g id="Icons/Large---Points" transform="translate(-16.000000, -22.000000)" fill-rule="nonzero" fill="#FFFFFF">
            <g id="001-commerce-copy" transform="translate(195.646245, 164.368197) rotate(-345.000000) translate(-195.646245, -164.368197) translate(26.646245, 40.368197)">
                <path d="M258.561094,101.205419 C255.627013,101.205419 253.008051,102.397181 251.00668,104.241486 C249.938544,105.219775 249.140735,106.377803 248.522091,107.603826 C248.454641,107.738762 248.3424,107.828368 248.286016,107.963832 C247.656306,109.357998 247.319055,110.876032 247.319055,112.450465 C247.319055,114.024898 247.656306,115.542932 248.286016,116.937098 C248.3424,117.072035 248.465707,117.161641 248.522091,117.297104 C249.129142,118.533669 249.938544,119.681155 251.00668,120.659444 C253.007524,122.50375 255.638079,123.695512 258.561094,123.695512 C264.755439,123.695512 269.802605,118.646468 269.802605,112.450992 C269.802605,106.255517 264.755439,101.205419 258.561094,101.205419 Z" id="Shape"></path>
                <path d="M233.18798,118.845374 C233.007977,118.462791 232.774982,118.102372 232.631989,117.71979 C231.985997,116.03115 231.537672,114.286574 231.537672,112.473924 C231.537672,110.661275 231.968333,108.916171 232.631989,107.228059 C232.775823,106.845476 233.008818,106.485057 233.18798,106.102474 C233.851635,104.71779 234.695294,103.400651 235.735779,102.139975 C235.879613,101.971111 235.932604,101.779556 236.07728,101.610692 C234.606134,101.34051 233.080314,101.205419 231.537672,101.205419 C221.650125,101.205419 213.593729,106.260257 213.593729,112.462842 C213.593729,119.633758 225.150089,125.184106 236.07728,123.337684 C235.933446,123.16882 235.880454,122.977265 235.735779,122.808401 C234.67763,121.547725 233.833972,120.218977 233.18798,118.845374 Z" id="Shape"></path>
                <path d="M299.534347,0 L88.306898,0 C67.5163409,0 50.5879885,16.4990981 50.5879885,36.7624665 L50.5879885,90.0095557 C52.971367,89.2299568 55.4919489,88.7446892 58.1320533,88.7446892 C67.9993817,88.7446892 76.6297579,94.5975402 79.6015551,103.317192 L89.5289983,132.345017 L118.48245,132.345017 C127.112119,132.345017 135.108813,137.241808 138.866348,144.829629 C142.623174,152.47604 141.536863,161.623058 136.166128,168.181753 L117.291468,191.165791 L299.534347,191.165791 C320.324904,191.165791 337.253257,174.666693 337.253257,154.403324 L337.253257,36.7624665 C337.253257,16.4990981 320.324904,0 299.534347,0 Z M239.183243,44.1152355 L254.270666,44.1152355 C258.434859,44.1152355 261.814731,47.4094028 261.814731,51.4680045 C261.814731,55.5266062 258.434859,58.8207735 254.270666,58.8207735 L239.183243,58.8207735 C235.01905,58.8207735 231.639179,55.5266062 231.639179,51.4680045 C231.639179,47.4094028 235.01905,44.1152355 239.183243,44.1152355 Z M148.657295,44.1152355 L163.744717,44.1152355 C167.908911,44.1152355 171.288782,47.4094028 171.288782,51.4680045 C171.288782,55.5266062 167.908911,58.8207735 163.744717,58.8207735 L148.657295,58.8207735 C144.493101,58.8207735 141.11323,55.5266062 141.11323,51.4680045 C141.11323,47.4094028 144.493101,44.1152355 148.657295,44.1152355 Z M95.8509628,51.4680045 C95.8509628,47.4094028 99.230834,44.1152355 103.395028,44.1152355 L118.48245,44.1152355 C122.646644,44.1152355 126.026515,47.4094028 126.026515,51.4680045 C126.026515,55.5266062 122.646644,58.8207735 118.48245,58.8207735 L103.395028,58.8207735 C99.2301268,58.8200842 95.8509628,55.5266062 95.8509628,51.4680045 Z M178.832847,147.050555 L163.745424,147.050555 C159.581231,147.050555 156.20136,143.756388 156.20136,139.697786 C156.20136,135.639185 159.581231,132.345017 163.745424,132.345017 L178.832847,132.345017 C182.99704,132.345017 186.376911,135.639185 186.376911,139.697786 C186.376911,143.756388 182.99704,147.050555 178.832847,147.050555 Z M178.832847,102.93532 L118.48245,102.93532 C114.318256,102.93532 110.938385,99.6411524 110.938385,95.5825507 C110.938385,91.523949 114.318256,88.2297817 118.48245,88.2297817 L178.832847,88.2297817 C182.99704,88.2297817 186.376911,91.523949 186.376911,95.5825507 C186.376911,99.6411524 182.99704,102.93532 178.832847,102.93532 Z M186.376911,51.4680045 C186.376911,47.4094028 189.756783,44.1152355 193.920976,44.1152355 L209.008399,44.1152355 C213.172592,44.1152355 216.552463,47.4094028 216.552463,51.4680045 C216.552463,55.5266062 213.172592,58.8207735 209.008399,58.8207735 L193.920976,58.8207735 C189.756075,58.8200842 186.376911,55.5266062 186.376911,51.4680045 Z M261.814731,147.050555 C256.308207,147.050555 251.192783,145.492047 246.74216,142.976789 C242.155748,145.594752 236.98021,147.050555 231.639179,147.050555 C214.997256,147.050555 201.463627,133.8601 201.463627,117.640168 C201.463627,101.420237 214.997256,88.2297817 231.639179,88.2297817 C236.98021,88.2297817 242.155041,89.6855845 246.74216,92.303548 C251.193491,89.7889795 256.3075,88.2297817 261.814731,88.2297817 C278.456653,88.2297817 291.990282,101.420237 291.990282,117.640168 C291.990282,133.8601 278.456653,147.050555 261.814731,147.050555 Z" id="Shape"></path>
                <path d="M128.57244,148.858356 C127.365894,146.305533 124.852481,144.691449 122.094661,144.691449 L84.1746418,144.691449 L71.4486778,105.694867 C69.4954467,99.7089358 59.7710354,99.7089358 57.8319435,105.694867 L45.1059795,144.691449 L7.18595984,144.691449 C4.42814023,144.691449 1.91472699,146.304845 0.708180914,148.843227 C-0.484225954,151.39605 -0.153637715,154.403458 1.56999954,156.604168 L27.9847405,190.319046 L14.6413643,238.030441 C13.8078241,240.993834 14.8857707,244.162857 17.313002,245.982569 C19.7550459,247.772709 23.0299567,247.846295 25.5292307,246.158626 L64.6409839,219.530034 L103.75341,246.158626 C104.959957,246.980453 106.338866,247.391023 107.731915,247.391023 C109.225959,247.391023 110.70519,246.921309 111.969639,245.982569 C114.396871,244.163544 115.474144,240.994522 114.641277,238.030441 L101.297901,190.319046 L127.711968,156.61861 C129.434259,154.418588 129.764174,151.41118 128.57244,148.858356 Z" id="Shape"></path>
            </g>
        </g>
    </g>
</svg>