<?xml version="1.0" encoding="utf-8"?>
<!-- Generator: Adobe Illustrator 18.1.1, SVG Export Plug-In . SVG Version: 6.00 Build 0)  -->
<svg version="1.1" id="Layer_1" xmlns="http://www.w3.org/2000/svg" xmlns:xlink="http://www.w3.org/1999/xlink" x="0px" y="0px"
	 viewBox="0 0 64 37" enable-background="new 0 0 64 37" xml:space="preserve">
<path id="VIEW_2_" fill-rule="evenodd" clip-rule="evenodd" fill="#FFFFFF" d="M64,18.6C64,18.7,64,18.7,64,18.6c0,0.1,0,0.1,0,0.1
	c0,0,0,0,0,0.1c0,0,0,0,0,0.1c0,0,0,0,0,0c-0.1,0.5-0.3,1-0.7,1.3c-0.7,0.8-1.4,1.6-2.1,2.3c-4,4-8.6,7.7-13.6,10.3
	c-3.2,1.7-6.6,3-10.2,3.7c-3.9,0.7-7.8,0.7-11.7-0.2c-6.7-1.5-12.8-5.1-18.1-9.4c-2.5-2-4.9-4.2-6.9-6.7c-0.9-1.1-0.9-2.4,0-3.4
	c0.7-0.8,1.4-1.6,2.1-2.3c4-4,8.6-7.7,13.6-10.3c3.2-1.7,6.6-3,10.2-3.7c3.9-0.7,7.8-0.7,11.7,0.2C45,2.1,51,5.8,56.4,10.1
	c2.5,2,4.9,4.2,6.9,6.7c0.4,0.4,0.6,0.8,0.7,1.3c0,0,0,0,0,0c0,0,0,0,0,0.1c0,0,0,0,0,0.1c0,0,0,0,0,0c0,0,0,0.1,0,0.1
	c0,0,0,0.1,0,0.1C64,18.6,64,18.6,64,18.6z M32,6c-6.6,0-12,5.4-12,12s5.4,12,12,12c6.6,0,12-5.4,12-12S38.6,6,32,6z M32,24
	c-3.3,0-6-2.7-6-6c0-3.3,2.7-6,6-6c3.3,0,6,2.7,6,6C38,21.3,35.3,24,32,24z"/>
</svg>
